                <svg xmlns:mydata="http://www.w3.org/2000/svg" mydata:contrastcolor="68D2DF" mydata:template="Contrast" mydata:presentation="2.5" mydata:layouttype="undefined" mydata:specialfontid="undefined" mydata:id1="911" mydata:id2="887" mydata:companyname="Nexus" mydata:companytagline="" version="1.1" xmlns="http://www.w3.org/2000/svg" xmlns:xlink="http://www.w3.org/1999/xlink" viewBox="68.0331720801659 184.93891515415208 413.93365583966823 100.12216969169589" class="watermark-logo"><g fill="#101820" fill-rule="none" stroke="none" stroke-width="1" stroke-linecap="butt" stroke-linejoin="miter" stroke-miterlimit="10" stroke-dasharray="" stroke-dashoffset="0" font-family="none" font-weight="none" font-size="none" text-anchor="none" style="mix-blend-mode: normal"><g data-paper-data="{&quot;isGlobalGroup&quot;:true,&quot;bounds&quot;:{&quot;x&quot;:68.0331720801659,&quot;y&quot;:184.93891515415208,&quot;width&quot;:413.93365583966823,&quot;height&quot;:100.12216969169589}}"><g data-paper-data="{&quot;isPrimaryText&quot;:true}"><path d="M103.21896,184.93892h-35.04276v1.85941c6.72249,0 13.87407,-0.14303 13.87407,6.29339v83.81656c0,6.43643 -7.29462,6.43643 -14.0171,6.43643v1.71638h33.04032v-1.71638c-7.00855,0 -14.0171,0 -14.0171,-6.57946v-79.66864l57.21267,87.96448h4.86308v-91.82633c0,-6.43643 7.58068,-6.43643 14.58923,-6.43643v-1.85941h-33.46941v1.85941c6.72249,0 14.0171,-0.14303 14.0171,6.29339v54.92416z" data-paper-data="{&quot;glyphName&quot;:&quot;N&quot;,&quot;glyphIndex&quot;:0,&quot;firstGlyphOfWord&quot;:true,&quot;word&quot;:1}" fill-rule="nonzero" style="fill: rgb(255, 255, 255);"></path><path d="M202.62597,282.48651c-12.44376,0 -17.44986,-13.30195 -18.73715,-29.32149c42.33737,0 47.62955,-14.0171 47.62955,-19.59534c-0.14303,-12.87285 -13.30195,-22.88507 -35.75792,-22.88507c-27.74814,0 -36.33004,19.59534 -36.33004,38.33249c0,18.59412 11.87163,36.04398 39.47674,36.04398c16.59167,0 28.03421,-5.8643 31.1809,-20.45353l-8.43887,-4.72005c-1.43032,11.15647 -7.86674,22.599 -19.02321,22.599zM183.45973,242.72371c0,-17.1638 3.86186,-30.17968 12.30072,-30.17968c17.02077,0 17.87896,38.76158 -12.01466,38.76158c-0.28606,-2.7176 -0.28606,-5.72127 -0.28606,-8.5819z" data-paper-data="{&quot;glyphName&quot;:&quot;e&quot;,&quot;glyphIndex&quot;:1,&quot;word&quot;:1}" fill-rule="nonzero" style="fill: rgb(255, 255, 255);"></path><path d="M278.00367,238.28973l-14.58923,-19.30928c-4.14792,-6.43643 -4.00489,-6.43643 3.00367,-6.43643l-1.14425,-1.85941h-38.04642l1.14425,1.85941c6.72249,0 6.72249,0 10.87041,6.43643l26.74692,35.32882l-16.87774,22.45597c-4.14792,6.43643 -13.58801,6.43643 -20.59656,6.43643l-1.14425,1.85941h38.04642l1.14425,-1.85941c-6.72249,0 -16.59167,0 -12.58679,-6.43643l14.4462,-19.16624l14.4462,19.16624c4.14792,6.43643 4.00489,6.43643 -2.7176,6.43643l1.14425,1.85941h38.04642l-1.14425,-1.85941c-7.00855,0 -7.15158,0 -11.15647,-6.43643l-26.60389,-35.18579l17.02077,-22.74204c4.14792,-6.43643 14.0171,-6.43643 20.73959,-6.43643l1.14425,-1.71638h-38.04642l-1.14425,1.71638c7.00855,0 16.44864,0.14303 12.30072,6.57946z" data-paper-data="{&quot;glyphName&quot;:&quot;x&quot;,&quot;glyphIndex&quot;:2,&quot;word&quot;:1}" fill-rule="nonzero" style="fill: rgb(255, 255, 255);"></path><path d="M455.649,271.18701c0,3.86186 -1.14425,10.29828 -12.44376,10.29828c-8.86796,0 -16.30561,-12.15769 -13.15891,-21.88385l-24.74448,11.87163c3.28973,6.00733 11.2995,13.58801 37.90339,13.58801c19.8814,0 38.76158,-5.4352 38.76158,-19.45231c0,-26.60389 -53.49384,-22.45597 -53.49384,-40.62099c0,-6.15036 4.43398,-11.44253 15.16136,-11.44253c9.58312,0 15.01833,9.86919 8.43887,16.59167l24.02932,-9.15403c-4.29095,-3.57579 -9.58312,-10.29828 -32.32516,-10.29828c-25.03054,0 -35.04276,7.43765 -35.04276,18.88018c0,28.03421 46.91439,14.73226 46.91439,41.62222z" data-paper-data="{&quot;glyphName&quot;:&quot;s&quot;,&quot;glyphIndex&quot;:4,&quot;lastGlyphOfWord&quot;:true,&quot;word&quot;:1}" fill-rule="nonzero" style="fill: rgb(255, 255, 255);"></path><g data-paper-data="{&quot;isIcon&quot;:&quot;true&quot;,&quot;iconType&quot;:&quot;icon&quot;,&quot;rawIconId&quot;:&quot;3459121&quot;,&quot;selectedEffects&quot;:{&quot;container&quot;:&quot;&quot;,&quot;transformation&quot;:&quot;&quot;,&quot;pattern&quot;:&quot;&quot;},&quot;isDetailed&quot;:false,&quot;fillRule&quot;:&quot;evenodd&quot;,&quot;bounds&quot;:{&quot;x&quot;:322.19999999999993,&quot;y&quot;:210.54199999999997,&quot;width&quot;:81.67200000000003,&quot;height&quot;:74.51899999999995},&quot;iconStyle&quot;:&quot;icon-in-text&quot;,&quot;suitableAsStandaloneIcon&quot;:true}" fill-rule="evenodd"><path d="M329.066,218.837c0,-6.436 -0.143,-6.436 -6.866,-6.436v-1.716l43.768,-0.143h37.904v1.716c-6.723,0 -6.723,0 -6.723,6.436v58.071c0,6.437 0,6.437 6.723,6.437v1.859h-45.198c-5.865,0 -29.751,-0.143 -29.751,-21.884c0,-44.34 0.143,-44.34 0.143,-44.34zM392.82378,264.99833v-34.39366l-29.78778,-17.19683l-29.78778,17.19683v34.39366l29.78778,17.19683zM339.89087,231.9008l23.14513,-13.35474l23.12198,13.33159l-23.12198,13.35474zM386.13484,263.7022l-23.09884,13.35474l-25.34391,-14.62772v-26.70948zM367.50301,247.8015l20.8769,-12.05861v24.14037z" data-paper-data="{&quot;glyphName&quot;:&quot;u&quot;,&quot;glyphIndex&quot;:3,&quot;word&quot;:1,&quot;isPathIcon&quot;:true}" style="fill: rgb(255, 255, 255);"></path></g></g></g></g><g class="watermark-group" style="opacity:0.040000010281801224"></g></svg>